PathFileType	4	(X/Y/Z)	/Users/itak/Documents/Research/Walk-IL/dataset/trc/00017_00004.trc
DataRate	CameraRate	NumFrames	NumMarkers	Units	OrigDataRate	OrigDataStartFrame	OrigNumFrames
100.000000	100.000000	4	56	mm	100.000000	165	441
Frame#	Time	RPSI			LPSI			L3			STRN			T10			C7			CLAV			RBAK			LBAK			LSHO			LUPA			LAEL			LAOL			LWTS			LWPS			LFRA			LIFD			LHPS			LHTS			RSHO			RUPA			RAEL			RAOL			RWTS			RWPS			RFRA			RIFD			RHTS			RHPS			RBHD			LFHD			RFHD			LBHD			LHIP			RHIP			RASI			LASI			LKNE			LANK			LTIP			LTOE			LMT1			LMT5			LHEE			RKNE			RTHI			RANK			RTIP			RTOE			RMT1			RMT5			RHEE			LTHI			*53			*54			*55			
		X1	Y1	Z1	X2	Y2	Z2	X3	Y3	Z3	X4	Y4	Z4	X5	Y5	Z5	X6	Y6	Z6	X7	Y7	Z7	X8	Y8	Z8	X9	Y9	Z9	X10	Y10	Z10	X11	Y11	Z11	X12	Y12	Z12	X13	Y13	Z13	X14	Y14	Z14	X15	Y15	Z15	X16	Y16	Z16	X17	Y17	Z17	X18	Y18	Z18	X19	Y19	Z19	X20	Y20	Z20	X21	Y21	Z21	X22	Y22	Z22	X23	Y23	Z23	X24	Y24	Z24	X25	Y25	Z25	X26	Y26	Z26	X27	Y27	Z27	X28	Y28	Z28	X29	Y29	Z29	X30	Y30	Z30	X31	Y31	Z31	X32	Y32	Z32	X33	Y33	Z33	X34	Y34	Z34	X35	Y35	Z35	X36	Y36	Z36	X37	Y37	Z37	X38	Y38	Z38	X39	Y39	Z39	X40	Y40	Z40	X41	Y41	Z41	X42	Y42	Z42	X43	Y43	Z43	X44	Y44	Z44	X45	Y45	Z45	X46	Y46	Z46	X47	Y47	Z47	X48	Y48	Z48	X49	Y49	Z49	X50	Y50	Z50	X51	Y51	Z51	X52	Y52	Z52	X53	Y53	Z53	X54	Y54	Z54	X55	Y55	Z55	X56	Y56	Z56	

166	1.65	84.3507080078125	1033.651733398438	-182.9786376953125	74.17045593261719	1024.275756835938	-344.7604675292969	78.76095581054688	1098.3115234375	-269.2701416015625	317.2328491210938	1281.46728515625	-290.4969482421875	72.84893035888672	1241.79736328125	-260.077880859375	121.8104629516602	1507.75830078125	-286.1493530273438	278.8215637207031	1409.058715820312	-296.9667053222656	79.17322540283203	1374.706787109375	-192.5097808837891	94.83267211914062	1462.34716796875	-379.6034240722656	190.1724395751953	1462.858032226562	-465.7803649902344	139.3600006103516	1339.29931640625	-533.0148315429688	106.6222763061523	1124.4169921875	-551.8417358398438	65.77492523193359	1121.205444335938	-454.4074401855469	161.4869232177734	860.5089721679688	-502.2254638671875	76.65785217285156	859.0105590820312	-530.1387329101562	100.3421478271484	1007.461730957031	-555.5265502929688	160.5455780029297	673.6935424804688	-486.1841430664062	95.28081512451172	765.8594970703125	-534.42431640625	165.2040100097656	765.3432006835938	-519.4921264648438	222.5160369873047	1496.1875	-122.4412460327148	230.6052398681641	1425.285034179688	-46.79500579833984	279.0135498046875	1154.737915039062	-17.69319152832031	246.1530151367188	1120.571655273438	-106.6158905029297	488.2843322753906	995.9804077148438	-144.9734802246094	473.9762268066406	948.6406860351562	-67.17447662353516	329.2759399414062	1089.185180664062	-19.88884925842285	592.5170288085938	852.0833740234375	-205.7786102294922	575.18359375	923.2852783203125	-168.0074157714844	554.8438110351562	888.0006103515625	-104.6521301269531	185.2281799316406	1683.09619140625	-217.1751708984375	355.1758728027344	1698.56787109375	-343.1198120117188	357.3822631835938	1699.824584960938	-243.9176788330078	173.129150390625	1685.404663085938	-361.2651062011719	168.6792144775391	927.0557861328125	-455.7108764648438	199.0786895751953	927.7161865234375	-83.24147796630859	299.3658752441406	956.7833862304688	-160.4817352294922	283.6102600097656	975.0127563476562	-395.2579345703125	371.3647766113281	530.2628173828125	-416.6487426757812	466.9914855957031	40.73616027832031	-424.5225219726562	384.5992126464844	282.7364807128906	-437.486083984375	670.5397338867188	128.6654205322266	-367.7913818359375	612.177978515625	115.7604446411133	-349.1375427246094	585.2920532226562	81.60635375976562	-445.9835205078125	399.885498046875	24.12175559997559	-370.1859741210938	187.8326721191406	487.1972961425781	-126.3794708251953	213.9117584228516	759.4818725585938	-86.50998687744141	-62.94575119018555	49.50364303588867	-163.7012176513672	136.3816070556641	364.2821960449219	-130.1819152832031	165.8748474121094	41.15027618408203	-215.2690582275391	101.033805847168	46.52887725830078	-242.2275390625	86.80441284179688	37.02229309082031	-145.877685546875	-121.4908218383789	60.79095077514648	-205.1196899414062	291.08837890625	640.7648315429688	-452.8800964355469	nan	nan	nan	nan	nan	nan	nan	nan	nan	
167	1.66	75.730712890625	1034.227416992188	-181.5639953613281	65.70904541015625	1024.998168945312	-343.4032897949219	70.49774932861328	1099.21240234375	-267.9623107910156	309.3937377929688	1281.870727539062	-288.7173156738281	64.87046051025391	1242.49853515625	-258.4818115234375	114.4047622680664	1508.429077148438	-284.373291015625	271.2030944824219	1409.541015625	-295.1529846191406	71.41991424560547	1375.434326171875	-190.8849029541016	87.36031341552734	1463.095825195312	-377.843994140625	182.7077941894531	1463.569946289062	-464.0236206054688	131.8194885253906	1340.0849609375	-531.3289184570312	99.27295684814453	1125.03857421875	-550.3505859375	58.58383941650391	1121.538330078125	-452.8670043945312	156.2959594726562	861.5989990234375	-500.8406372070312	71.50634002685547	859.400146484375	-528.66064453125	93.81306457519531	1008.0361328125	-554.1060791015625	157.116455078125	674.8890380859375	-485.1479187011719	90.92268371582031	766.4676513671875	-533.1056518554688	160.8965911865234	766.5384521484375	-518.2888793945312	214.9443054199219	1496.597045898438	-120.5946578979492	222.7131195068359	1425.666870117188	-44.96311950683594	269.9256896972656	1155.019653320312	-15.21645259857178	236.8021240234375	1120.87646484375	-104.2078247070312	478.033203125	994.8936767578125	-142.6090545654297	463.6655578613281	947.821044921875	-64.65694427490234	319.8112487792969	1089.206787109375	-17.3410701751709	581.3382568359375	850.3417358398438	-203.4283142089844	564.4732055664062	921.6949462890625	-165.7376251220703	544.1258544921875	886.6526489257812	-102.2618255615234	178.3477172851562	1683.85205078125	-215.3289489746094	348.1539916992188	1698.66650390625	-341.5182495117188	350.4928894042969	1699.969604492188	-242.3134002685547	166.0686645507812	1686.128784179688	-359.4167175292969	160.3402862548828	927.5049438476562	-454.3718566894531	190.4378356933594	928.3207397460938	-81.77037811279297	290.7496032714844	957.4487915039062	-158.7288208007812	275.1288452148438	975.3505249023438	-393.5252380371094	365.4039611816406	531.2732543945312	-414.3316345214844	458.3526916503906	41.7555046081543	-422.6098937988281	377.6186828613281	283.9279479980469	-435.7294616699219	662.5263061523438	126.9346389770508	-364.4486999511719	603.9622802734375	114.4824752807617	-346.2279052734375	576.974609375	81.64118194580078	-443.4285888671875	390.9690551757812	25.55483245849609	-368.6500549316406	183.3427886962891	487.6721801757812	-126.0700759887695	206.7399749755859	760.0144653320312	-85.19256591796875	-63.3297119140625	48.1383056640625	-164.1201629638672	133.0616607666016	364.3083190917969	-130.1850128173828	165.8516235351562	41.17731475830078	-215.2369537353516	100.9086151123047	46.2224006652832	-242.4207000732422	86.68682098388672	37.08625411987305	-146.030517578125	-121.9347381591797	58.60378646850586	-205.6871643066406	284.2757873535156	641.6109619140625	-451.4949645996094	nan	nan	nan	nan	nan	nan	nan	nan	nan	
168	1.67	67.35009002685547	1034.887451171875	-180.0751800537109	57.3828239440918	1025.923706054688	-341.9619140625	62.38947296142578	1100.137084960938	-266.5598754882812	301.6317749023438	1282.437133789062	-286.9956359863281	56.98674392700195	1243.389526367188	-257.0323181152344	107.0904006958008	1509.265380859375	-282.72900390625	263.6771545410156	1410.176391601562	-293.4000854492188	63.70618438720703	1376.333251953125	-189.4236145019531	80.03292083740234	1464.026733398438	-376.2408752441406	175.425048828125	1464.461303710938	-462.3627014160156	124.5187225341797	1341.055541992188	-529.7960815429688	92.17305755615234	1125.834228515625	-548.98681640625	51.5557746887207	1122.073608398438	-451.4816589355469	151.3817596435547	862.9373779296875	-499.5156860351562	66.62788391113281	859.9769287109375	-527.2775268554688	87.55540466308594	1008.80224609375	-552.7969360351562	154.1939697265625	676.5601806640625	-484.2499389648438	86.85375213623047	767.2803955078125	-531.8427124023438	156.8573150634766	767.9700927734375	-517.083984375	207.3992004394531	1497.137817382812	-118.8221130371094	214.7949981689453	1426.159545898438	-43.22068786621094	260.6705932617188	1155.4091796875	-12.82630062103271	227.3072052001953	1121.289306640625	-101.8632431030273	467.5384826660156	993.6373291015625	-140.1113433837891	452.9844665527344	946.8893432617188	-61.99946594238281	310.1301879882812	1089.298217773438	-14.8232307434082	569.814697265625	848.3241577148438	-200.7691192626953	553.4513549804688	919.8527221679688	-163.2236633300781	533.020263671875	885.1002807617188	-99.63135528564453	171.4923095703125	1684.727416992188	-213.5386352539062	341.1850280761719	1698.990112304688	-339.9358215332031	343.6303100585938	1700.310668945312	-240.7209167480469	159.0616455078125	1687.013549804688	-357.6238403320312	152.0860137939453	928.2952880859375	-453.1036071777344	182.1327209472656	928.915283203125	-80.39833068847656	282.3993835449219	958.1903076171875	-157.1427459716797	266.7829284667969	975.9671630859375	-391.9217224121094	359.6744995117188	532.5060424804688	-412.2815551757812	448.3386535644531	42.5000114440918	-420.5512084960938	370.160888671875	285.1802673339844	-434.0049438476562	653.3930053710938	124.0421295166016	-360.8137817382812	594.5709228515625	112.3183364868164	-343.078125	567.4949340820312	80.74723052978516	-440.5958251953125	380.5838928222656	27.17996406555176	-367.0137023925781	178.8453216552734	488.2626342773438	-126.0537796020508	199.7616729736328	760.5693359375	-84.10077667236328	-63.67961502075195	46.92783355712891	-164.5842590332031	129.7165832519531	364.5023498535156	-130.4099273681641	165.8090667724609	41.22537994384766	-215.1993255615234	100.7990951538086	45.92834091186523	-242.6380767822266	86.57612609863281	37.17874145507812	-146.2132873535156	-122.3186874389648	56.56345748901367	-206.3129119873047	277.7660217285156	642.8095703125	-450.3024597167969	nan	nan	nan	nan	nan	nan	nan	nan	nan	
169	1.68	59.20410919189453	1035.639526367188	-178.5280609130859	49.19387817382812	1027.034545898438	-340.4429321289062	54.40684127807617	1101.0966796875	-265.0650024414062	293.9556274414062	1283.164428710938	-285.3252868652344	49.19047927856445	1244.473266601562	-255.7098846435547	99.86757659912109	1510.262939453125	-281.2117614746094	256.2464904785156	1410.962890625	-291.7068786621094	56.04058456420898	1377.402465820312	-188.1080780029297	72.85158538818359	1465.13330078125	-374.7871398925781	168.3183135986328	1465.513916015625	-460.79345703125	117.4542846679688	1342.189453125	-528.4048461914062	85.34000396728516	1126.787109375	-547.744384765625	44.69335556030273	1122.790893554688	-450.2484130859375	146.7333221435547	864.4915161132812	-498.2476806640625	62.02191925048828	860.7263793945312	-525.9955444335938	81.57889556884766	1009.740478515625	-551.5927124023438	151.6503448486328	678.5650634765625	-483.4111328125	83.07276153564453	768.27978515625	-530.6473999023438	153.0874328613281	769.6132202148438	-515.8853149414062	199.8892059326172	1497.82373046875	-117.1276702880859	206.8628692626953	1426.7841796875	-41.56563568115234	251.2451934814453	1155.926391601562	-10.54718494415283	217.6987609863281	1121.845825195312	-99.60686492919922	456.8045043945312	992.227294921875	-137.4775238037109	441.9326782226562	945.8609008789062	-59.20465850830078	300.2330627441406	1089.480224609375	-12.35786437988281	557.9317016601562	846.028564453125	-197.7896575927734	542.117431640625	917.7603759765625	-160.4526672363281	521.5152587890625	883.350341796875	-96.74851989746094	164.6573486328125	1685.707397460938	-211.8106536865234	334.2705383300781	1699.536743164062	-338.3706665039062	336.7940368652344	1700.847412109375	-239.1407775878906	152.1119689941406	1688.041259765625	-355.8918762207031	143.9136047363281	929.42431640625	-451.9136047363281	174.1550750732422	929.51611328125	-79.13164520263672	274.3155822753906	959.0151977539062	-155.7404479980469	258.5631713867188	976.8748168945312	-390.4613342285156	354.0699157714844	533.9556274414062	-410.4907531738281	436.9883728027344	42.99165344238281	-418.3844299316406	362.1837768554688	286.4599304199219	-432.3124694824219	643.0291748046875	120.3475570678711	-356.9154052734375	583.9215087890625	109.5315246582031	-339.7086486816406	556.830078125	79.14412689208984	-437.5330505371094	368.7901000976562	28.87292861938477	-365.3089904785156	174.3117218017578	488.9733581542969	-126.2737197875977	192.9677581787109	761.1683959960938	-83.21646118164062	-63.99514007568359	45.85869216918945	-165.0604095458984	126.3173065185547	364.8595581054688	-130.8079681396484	165.7359466552734	41.29129791259766	-215.1631622314453	100.694091796875	45.64919281005859	-242.8646545410156	86.46739196777344	37.29695510864258	-146.4128570556641	-122.6569061279297	54.6628532409668	-206.9503784179688	271.505859375	644.3423461914062	-449.2498779296875	nan	nan	nan	nan	nan	nan	nan	nan	nan	
